<?xml version="1.0" standalone="no"?>
<!DOCTYPE svg PUBLIC "-//W3C//DTD SVG 20010904//EN"
 "http://www.w3.org/TR/2001/REC-SVG-20010904/DTD/svg10.dtd">
<svg version="1.0" xmlns="http://www.w3.org/2000/svg"
 width="74.000000pt" height="74.000000pt" viewBox="0 0 74.000000 74.000000"
 preserveAspectRatio="xMidYMid meet">
<metadata>
Created by potrace 1.11, written by Peter Selinger 2001-2013
</metadata>
<g transform="translate(0.000000,74.000000) scale(0.100000,-0.100000)"
fill="#000000" stroke="none">
<path d="M0 370 l0 -370 370 0 370 0 0 370 0 370 -370 0 -370 0 0 -370z m411
20 c131 -331 124 -310 106 -310 -8 0 -21 16 -29 36 l-15 37 -96 -2 c-82 -2
-97 0 -97 13 0 13 15 16 90 16 50 0 90 2 90 5 0 2 -22 57 -48 122 -27 65 -50
121 -51 125 -1 4 -10 27 -20 50 -10 24 -26 64 -36 91 -10 26 -19 46 -20 45 -2
-2 -107 -267 -138 -348 -49 -127 -78 -185 -93 -189 -11 -2 -15 2 -11 10 18 46
215 547 220 562 18 48 41 7 148 -263z m58 -10 c61 -155 111 -285 111 -290 0
-6 -6 -10 -14 -10 -7 0 -24 30 -39 68 -14 37 -64 165 -112 285 -77 194 -92
249 -65 232 4 -3 58 -131 119 -285z m-52 273 c3 -10 55 -141 114 -292 60 -151
107 -276 105 -278 -16 -16 -45 44 -138 280 -59 149 -110 280 -114 290 -4 12
-1 17 10 17 9 0 19 -8 23 -17z m48 7 c10 -16 225 -562 225 -571 0 -5 -6 -9
-13 -9 -8 0 -39 65 -77 162 -35 90 -85 216 -112 282 -26 65 -48 125 -48 132 0
16 16 19 25 4z m-165 -118 c0 -23 -164 -440 -179 -455 -27 -27 -21 10 18 110
23 60 65 167 94 240 46 120 67 152 67 105z m30 -67 c0 -12 -112 -305 -142
-370 -13 -29 -44 -36 -34 -7 62 166 161 400 167 396 5 -3 9 -11 9 -19z m-30
-227 c-61 -155 -71 -173 -88 -167 -5 2 17 72 49 154 82 209 79 203 90 183 7
-13 -7 -58 -51 -170z m118 15 c3 -9 -12 -13 -52 -13 -46 0 -54 3 -49 15 7 20
94 17 101 -2z m22 -48 c0 -12 -15 -15 -75 -15 -62 0 -73 2 -69 15 9 22 144 22
144 0z"/>
</g>
</svg>
